{"title":"UFC 126 Anderson Silva v Vitor Belfort-XviD-SINGLE-FIGHT-ONLY","uid":6154016,"size":253317632,"categoryP":"video","categoryS":"tv_shows","magnet":"?xt=urn:btih:9e0f8423b19670da951b21b375b49342655d6238&amp;dn=UFC+126+Anderson+Silva+v+Vitor+Belfort-XviD-SINGLE-FIGHT-ONLY&amp;tr=udp%3A%2F%2Ftracker.openbittorrent.com%3A80&amp;tr=udp%3A%2F%2Fopen.demonii.com%3A1337&amp;tr=udp%3A%2F%2Ftracker.coppersurfer.tk%3A6969&amp;tr=udp%3A%2F%2Fexodus.desync.com%3A6969","seeders":1,"leechers":0,"uploader":"DibyaTPB","files":1,"time":1296980812,"description":"UFC 126 Anderson Silva v Vitor Belfort-XviD-SINGLE-FIGHT-ONLY\n\nFormat : AVI\nFormat/Info : Audio Video Interleave\nFile size : 242 MiB\nDuration : 14mn 22s\nOverall bit rate : 2 349 Kbps\n\nVideo\nID : 0\nFormat : MPEG-4 Visual\nFormat profile : Advanced Simple@L5\nFormat settings, BVOP : 1\nFormat settings, QPel : No\nFormat settings, GMC : No warppoints\nFormat settings, Matrix : Default (H.263)\nMuxing mode : Packed bitstream\nCodec ID : XVID\nCodec ID/Hint : XviD\nDuration : 14mn 22s\nBit rate : 2 209 Kbps\nWidth : 720 pixels\nHeight : 364 pixels\nDisplay aspect ratio : 1.978\nFrame rate : 29.970 fps\nColor space : YUV\nChroma subsampling : 4:2:0\nBit depth : 8 bits\nScan type : Progressive\nCompression mode : Lossy\nBits/(Pixel*Frame) : 0.281\nStream size : 227 MiB (94%)\nWriting library : XviD 1.1.0 (UTC 2005-11-22)\n\nAudio\nID : 1\nFormat : MPEG Audio\nFormat version : Version 1\nFormat profile : Layer 3\nCodec ID : 55\nCodec ID/Hint : MP3\nDuration : 14mn 22s\nBit rate mode : Constant\nBit rate : 128 Kbps\nChannel(s) : 2 channels\nSampling rate : 48.0 KHz\nCompression mode : Lossy\nDelay relative to video : 24ms\nStream size : 13.2 MiB (5%)\nAlignment : Split accross interleaves\nInterleave, duration : 33 ms (1.00 video frame)\nInterleave, preload duration : 45 ms\nTitle : Audio Stream","torrent":{"xt":"urn:btih:9e0f8423b19670da951b21b375b49342655d6238","amp;dn":"UFC+126+Anderson+Silva+v+Vitor+Belfort-XviD-SINGLE-FIGHT-ONLY","amp;tr":["udp%3A%2F%2Ftracker.openbittorrent.com%3A80","udp%3A%2F%2Fopen.demonii.com%3A1337","udp%3A%2F%2Ftracker.coppersurfer.tk%3A6969","udp%3A%2F%2Fexodus.desync.com%3A6969"],"infoHash":"9e0f8423b19670da951b21b375b49342655d6238","infoHashBuffer":{"type":"Buffer","data":[158,15,132,35,177,150,112,218,149,27,33,179,117,180,147,66,101,93,98,56]},"announce":[],"urlList":[]}}